<svg width="825" height="802" viewBox="0 0 825 802" fill="none" xmlns="http://www.w3.org/2000/svg">
<path d="M448.562 28.1816C446.995 25.0478 441.38 20.9999 438.769 19.3677C435.504 16.9194 430.346 14.4961 427.507 22.3057C424.569 30.385 425.058 31.9356 424.569 31.6092C413.306 64.6613 408.893 67.9209 402.534 75.189C395.679 83.0236 370.706 100.406 357.975 111.914C351.05 118.173 346.677 122.839 345.488 126.603C344.019 131.255 346.141 132.153 348.182 133.948C350.875 137.621 373.742 138.649 395.679 124.155C423.1 106.038 441.217 83.0235 448.562 66.8647C455.907 50.706 450.521 32.0989 448.562 28.1816Z" fill="#FFD700" stroke="black"/>
<path d="M420.653 2.29776C423.019 1.31844 428.585 -0.0526124 431.915 2.29776C435.244 4.64814 434.118 10.3772 438.28 17.9669C441.237 23.3588 441.45 18.3969 448.397 27.9607C448.739 28.3257 449.044 28.7475 449.298 29.2291C448.985 28.78 448.685 28.3578 448.397 27.9607C445.431 24.7999 439.643 25.893 439.994 29.2291C440.484 33.8809 431.915 22.4038 431.915 31.9222C431.915 33.636 424.87 36.1558 426.039 27.2704C427.263 17.9669 427.263 21.3945 427.263 17.9669L424.815 11.6013L420.653 2.29776Z" fill="#90EE90" stroke="black"/>
<ellipse cx="439.267" cy="47.1507" rx="2.72515" ry="7.04768" transform="rotate(12.3482 439.267 47.1507)" fill="#B67800"/>
<ellipse cx="376.747" cy="121.518" rx="2.72515" ry="7.04768" transform="rotate(52.8629 376.747 121.518)" fill="#B67800"/>
<path d="M716.274 163.924C716.83 160.464 714.633 153.901 713.464 151.051C712.242 147.158 709.467 142.181 702.604 146.866C695.503 151.712 694.996 153.257 694.789 152.707C666.356 172.976 660.871 173.048 651.465 175.24C641.326 177.602 610.903 177.146 593.849 179.062C584.572 180.104 578.299 181.342 575.137 183.705C571.23 186.626 572.429 188.593 573.038 191.242C573.082 195.795 591.052 209.974 617.325 211.004C650.165 212.292 678.308 204.175 693.701 195.338C709.095 186.502 715.579 168.248 716.274 163.924Z" fill="#FFD700" stroke="black"/>
<path d="M708.713 126.618C711.206 127.203 716.526 129.338 717.859 133.19C719.191 137.041 714.934 141.037 713.885 149.629C713.14 155.733 716.208 151.828 716.269 163.648C716.334 164.144 716.335 164.665 716.26 165.204C716.269 164.657 716.271 164.139 716.269 163.648C715.704 159.35 710.366 156.861 708.705 159.775C706.388 163.838 706.126 149.518 700.572 157.247C699.572 158.639 692.381 156.574 698.515 150.041C704.938 143.2 702.938 145.983 704.938 143.2L706.664 136.602L708.713 126.618Z" fill="#90EE90" stroke="black"/>
<ellipse cx="697.657" cy="173.904" rx="2.72515" ry="7.04768" transform="rotate(48.0471 697.657 173.904)" fill="#B67800"/>
<ellipse cx="603.489" cy="197.816" rx="2.72515" ry="7.04768" transform="rotate(88.5619 603.489 197.816)" fill="#B67800"/>
<path d="M797.876 411.457C800.247 408.877 802.033 402.19 802.629 399.169C803.756 395.247 804.185 389.564 795.877 389.688C787.281 389.817 786.006 390.826 786.136 390.253C751.24 391.486 746.624 388.521 737.569 385.163C727.808 381.544 702.678 364.389 687.394 356.585C679.081 352.339 673.165 349.913 669.224 350.141C664.353 350.423 664.269 352.726 663.317 355.271C660.843 359.095 668.017 380.832 689.367 396.177C716.055 415.358 744.009 424.103 761.723 425.219C779.438 426.334 794.912 414.681 797.876 411.457Z" fill="#FFD700" stroke="black"/>
<path d="M812.137 376.165C813.894 378.028 817.156 382.742 816.144 386.69C815.132 390.638 809.377 391.624 803.764 398.214C799.777 402.895 804.49 401.329 798.023 411.224C797.804 411.674 797.518 412.109 797.159 412.517C797.467 412.065 797.755 411.635 798.023 411.224C799.922 407.327 796.842 402.307 793.849 403.822C789.675 405.935 797.353 393.843 788.457 397.229C786.856 397.839 781.994 392.151 790.714 390.083C799.845 387.917 796.641 389.137 799.845 387.917L804.923 383.364L812.137 376.165Z" fill="#90EE90" stroke="black"/>
<ellipse cx="776.841" cy="409.518" rx="2.72515" ry="7.04768" transform="rotate(81.5081 776.841 409.518)" fill="#B67800"/>
<ellipse cx="685.096" cy="377.545" rx="2.72515" ry="7.04768" transform="rotate(122.023 685.096 377.545)" fill="#B67800"/>
<path d="M678.592 718.504C682.094 718.406 688.133 715.023 690.715 713.344C694.312 711.417 698.685 707.763 692.803 701.894C686.717 695.821 685.105 695.611 685.607 695.305C660.393 671.149 659.3 665.773 655.393 656.94C651.182 647.42 645.959 617.444 640.898 601.047C638.145 592.127 635.759 586.194 632.848 583.528C629.25 580.234 627.541 581.779 625.052 582.871C620.586 583.763 610.006 604.062 613.891 630.066C618.748 662.57 631.969 688.706 643.52 702.183C655.071 715.66 674.214 718.627 678.592 718.504Z" fill="#FFD700" stroke="black"/>
<path d="M713.834 704.121C713.724 706.68 712.618 712.305 709.083 714.332C705.547 716.359 700.828 712.921 692.191 713.492C686.055 713.898 690.464 716.185 678.862 718.448C678.386 718.604 677.875 718.703 677.332 718.729C677.871 718.636 678.38 718.542 678.862 718.448C682.979 717.092 684.43 711.384 681.257 710.294C676.833 708.776 690.854 705.849 682.224 701.833C680.67 701.11 681.358 693.66 688.921 698.468C696.839 703.504 693.732 702.057 696.839 703.504L703.643 703.97L713.834 704.121Z" fill="#90EE90" stroke="black"/>
<ellipse cx="665.316" cy="702.074" rx="2.72515" ry="7.04768" transform="rotate(127.304 665.316 702.074)" fill="#B67800"/>
<ellipse cx="624.27" cy="614.014" rx="2.72515" ry="7.04768" transform="rotate(167.819 624.27 614.014)" fill="#B67800"/>
<path d="M378.524 774.594C380.973 777.1 387.555 779.242 390.54 780C394.395 781.335 400.047 782.069 400.368 773.766C400.701 765.175 399.762 763.848 400.328 764.009C400.968 729.097 404.176 724.647 408.015 715.785C412.153 706.232 430.631 682.059 439.245 667.216C443.93 659.142 446.67 653.364 446.654 649.417C446.633 644.539 444.339 644.331 441.848 643.244C438.163 640.568 416.072 646.566 399.604 667.062C379.018 692.682 368.786 720.126 366.722 737.756C364.657 755.385 375.464 771.461 378.524 774.594Z" fill="#FFD700" stroke="black"/>
<path d="M413 790.728C411.045 792.383 406.163 795.387 402.275 794.165C398.387 792.942 397.712 787.143 391.432 781.185C386.971 776.952 388.282 781.742 378.749 774.754C378.311 774.511 377.892 774.202 377.504 773.821C377.939 774.153 378.353 774.464 378.749 774.754C382.538 776.859 387.716 774.052 386.364 770.982C384.478 766.702 396.141 775.017 393.236 765.953C392.714 764.321 398.654 759.771 400.251 768.59C401.924 777.823 400.878 774.559 401.924 777.823L406.198 783.138L413 790.728Z" fill="#90EE90" stroke="black"/>
<ellipse cx="381.589" cy="753.694" rx="2.72515" ry="7.04768" transform="rotate(174.583 381.589 753.694)" fill="#B67800"/>
<ellipse cx="418.437" cy="663.797" rx="2.72515" ry="7.04768" transform="rotate(-144.902 418.437 663.797)" fill="#B67800"/>
<path d="M105.735 639.405C105.665 642.909 108.754 649.103 110.307 651.762C112.059 655.447 115.499 659.991 121.644 654.397C128.002 648.61 128.289 647.01 128.571 647.527C153.909 623.501 159.332 622.667 168.341 619.189C178.053 615.44 208.245 611.661 224.866 607.393C233.908 605.071 239.948 602.973 242.751 600.193C246.214 596.757 244.753 594.976 243.782 592.438C243.105 587.934 223.338 576.392 197.177 579.024C164.477 582.315 137.736 594.267 123.721 605.158C109.705 616.049 105.822 635.027 105.735 639.405Z" fill="#FFD700" stroke="black"/>
<path d="M118.41 675.298C115.859 675.065 110.294 673.691 108.439 670.062C106.584 666.433 110.245 661.884 110.088 653.229C109.978 647.081 107.482 651.375 105.779 639.678C105.645 639.195 105.571 638.68 105.571 638.136C105.638 638.679 105.708 639.192 105.779 639.678C106.935 643.855 112.567 645.579 113.808 642.462C115.537 638.116 117.787 652.261 122.213 643.834C123.009 642.317 130.418 643.361 125.252 650.684C119.843 658.352 121.436 655.317 119.843 658.352L119.05 665.126L118.41 675.298Z" fill="#90EE90" stroke="black"/>
<ellipse cx="122.784" cy="626.933" rx="2.72515" ry="7.04768" transform="rotate(-139.945 122.784 626.933)" fill="#B67800"/>
<ellipse cx="212.713" cy="590.161" rx="2.72515" ry="7.04768" transform="rotate(-99.4303 212.713 590.161)" fill="#B67800"/>
<path d="M27.0343 366.415C24.5248 368.86 22.3743 375.44 21.6128 378.424C20.2721 382.277 19.5307 387.928 27.8339 388.261C36.424 388.605 37.7525 387.667 37.5902 388.233C72.5016 388.92 76.948 392.133 85.8048 395.984C95.3519 400.135 119.501 418.645 134.332 427.278C142.4 431.974 148.174 434.721 152.121 434.71C157 434.696 157.21 432.402 158.301 429.913C160.981 426.231 155.013 404.132 134.539 387.637C108.946 367.017 81.5151 356.749 63.8885 354.661C46.262 352.574 30.1713 363.359 27.0343 366.415Z" fill="#FFD700" stroke="black"/>
<path d="M10.8545 400.87C9.20237 398.913 6.20497 394.027 7.4325 390.14C8.66003 386.254 14.4604 385.586 20.4266 379.315C24.6652 374.859 19.8731 376.164 26.874 366.64C27.1177 366.203 27.4269 365.784 27.8087 365.396C27.4758 365.83 27.1648 366.244 26.874 366.64C24.7639 370.426 27.5639 375.608 30.6356 374.26C34.9187 372.38 26.588 384.031 35.6563 381.139C37.2891 380.618 41.8304 386.564 33.0099 388.15C23.7742 389.811 27.0398 388.769 23.7742 389.811L18.4535 394.078L10.8545 400.87Z" fill="#90EE90" stroke="black"/>
<ellipse cx="47.9308" cy="369.507" rx="2.72515" ry="7.04769" transform="rotate(-95.3408 47.9308 369.507)" fill="#B67800"/>
<ellipse cx="137.779" cy="406.475" rx="2.72515" ry="7.04768" transform="rotate(-54.826 137.779 406.475)" fill="#B67800"/>
<path d="M146.334 108.862C142.831 108.961 136.793 112.344 134.211 114.023C130.614 115.95 126.241 119.604 132.124 125.473C138.21 131.546 139.822 131.756 139.319 132.062C164.535 156.216 165.629 161.593 169.536 170.425C173.747 179.945 178.972 209.92 184.034 226.317C186.788 235.237 189.174 241.17 192.085 243.835C195.683 247.13 197.392 245.585 199.881 244.492C204.347 243.6 214.926 223.301 211.039 197.297C206.181 164.793 192.958 138.658 181.406 125.181C169.854 111.705 150.712 108.739 146.334 108.862Z" fill="#FFD700" stroke="black"/>
<path d="M111.092 123.247C111.202 120.688 112.307 115.063 115.843 113.036C119.379 111.009 124.098 114.447 132.735 113.875C138.871 113.469 134.462 111.182 146.064 108.919C146.539 108.762 147.05 108.664 147.594 108.637C147.055 108.731 146.545 108.825 146.064 108.919C141.947 110.275 140.496 115.983 143.669 117.072C148.093 118.591 134.072 121.518 142.702 125.534C144.256 126.257 143.569 133.707 136.006 128.899C128.087 123.864 131.195 125.31 128.087 123.864L121.283 123.398L111.092 123.247Z" fill="#90EE90" stroke="black"/>
<ellipse cx="159.611" cy="125.292" rx="2.72515" ry="7.04768" transform="rotate(-52.6994 159.611 125.292)" fill="#B67800"/>
<ellipse cx="200.662" cy="213.35" rx="2.72515" ry="7.04768" transform="rotate(-12.1846 200.662 213.35)" fill="#B67800"/>
</svg>
