<svg width="362" height="362" viewBox="0 0 362 362" fill="none" xmlns="http://www.w3.org/2000/svg">
<path d="M49.6475 107.511C52.8475 101.111 64.3142 92.8445 69.6475 89.5111C76.3142 84.5111 86.8479 79.5623 92.6475 95.5111C98.6475 112.011 97.6475 115.178 98.6475 114.511C121.647 182.011 130.66 188.668 143.648 203.511C157.648 219.511 208.647 255.011 234.648 278.511C248.79 291.294 257.72 300.823 260.148 308.511C263.147 318.011 258.814 319.844 254.648 323.511C249.148 331.011 202.448 333.111 157.648 303.511C101.648 266.511 64.6475 219.511 49.6475 186.511C34.6475 153.511 45.6475 115.511 49.6475 107.511Z" fill="#FFD700" stroke="black"/>
<path d="M106.645 54.6503C101.812 52.6503 90.445 49.8503 83.645 54.6503C76.845 59.4503 79.145 71.1503 70.645 86.6503C64.6064 97.6619 64.1715 87.5284 49.985 107.06C49.2854 107.805 48.6627 108.667 48.145 109.65C48.783 108.733 49.3958 107.871 49.985 107.06C56.0424 100.605 67.8622 102.837 67.145 109.65C66.145 119.15 83.645 95.7116 83.645 115.15C83.645 118.65 98.0326 123.796 95.645 105.65C93.145 86.6503 93.145 93.6503 93.145 86.6503L98.145 73.6503L106.645 54.6503Z" fill="#90EE90"/>
<path d="M106.645 54.6503C101.812 52.6503 90.445 49.8503 83.645 54.6503C76.845 59.4503 79.145 71.1503 70.645 86.6503C64.3557 98.1192 64.145 86.6503 48.145 109.65C53.145 100.15 67.945 102.05 67.145 109.65C66.145 119.15 83.645 95.7116 83.645 115.15C83.645 118.65 98.0326 123.796 95.645 105.65C93.145 86.6503 93.145 93.6503 93.145 86.6503L98.145 73.6503L106.645 54.6503Z" stroke="black"/>
<ellipse cx="5.56539" cy="14.393" rx="5.56539" ry="14.393" transform="matrix(-0.976866 0.213851 0.213851 0.976866 70.9891 131)" fill="#B67800"/>
<ellipse cx="5.56539" cy="14.393" rx="5.56539" ry="14.393" transform="matrix(-0.603724 0.797193 0.797193 0.603724 188.197 285)" fill="#B67800"/>
<path d="M312.498 107.511C309.298 101.111 297.831 92.8445 292.498 89.5111C285.831 84.5111 275.297 79.5623 269.498 95.5111C263.498 112.011 264.498 115.178 263.498 114.511C240.498 182.011 231.485 188.668 218.497 203.511C204.497 219.511 153.498 255.011 127.498 278.511C113.355 291.294 104.425 300.823 101.998 308.511C98.9976 318.011 103.331 319.844 107.498 323.511C112.998 331.011 159.697 333.111 204.497 303.511C260.497 266.511 297.498 219.511 312.498 186.511C327.498 153.511 316.498 115.511 312.498 107.511Z" fill="#FFD700" stroke="black"/>
<path d="M255.5 54.6503C260.333 52.6503 271.7 49.8503 278.5 54.6503C285.3 59.4503 283 71.1503 291.5 86.6503C297.539 97.6619 297.974 87.5284 312.16 107.06C312.86 107.805 313.482 108.667 314 109.65C313.362 108.733 312.749 107.871 312.16 107.06C306.103 100.605 294.283 102.837 295 109.65C296 119.15 278.5 95.7116 278.5 115.15C278.5 118.65 264.112 123.796 266.5 105.65C269 86.6503 269 93.6503 269 86.6503L264 73.6503L255.5 54.6503Z" fill="#90EE90"/>
<path d="M255.5 54.6503C260.333 52.6503 271.7 49.8503 278.5 54.6503C285.3 59.4503 283 71.1503 291.5 86.6503C297.789 98.1192 298 86.6503 314 109.65C309 100.15 294.2 102.05 295 109.65C296 119.15 278.5 95.7116 278.5 115.15C278.5 118.65 264.112 123.796 266.5 105.65C269 86.6503 269 93.6503 269 86.6503L264 73.6503L255.5 54.6503Z" stroke="black"/>
<ellipse cx="293.515" cy="146.25" rx="5.56539" ry="14.393" transform="rotate(12.3482 293.515 146.25)" fill="#B67800"/>
<ellipse cx="165.834" cy="298.126" rx="5.56539" ry="14.393" transform="rotate(52.8629 165.834 298.126)" fill="#B67800"/>
<circle cx="181" cy="181" r="178.5" stroke="black" stroke-width="5"/>
<path d="M162.516 55.2045C159.356 55.5024 158.618 54.2334 156.279 52.6797L157.935 56.3698C156.151 55.3311 154.879 54.8557 152.283 54.1363C152.981 56.3918 153.474 56.8387 154.427 57.0495C154.427 57.0495 160.167 57.5696 158.52 58.409C156.873 59.2484 155.468 59.3453 152.283 58.9916L155.499 61.225H157.935C157.734 62.7661 157.754 63.5391 157.935 64.8179C158.307 67.2455 159.789 68.148 159.105 68.8964C158.421 69.6447 157.058 68.3137 156.279 69.479C155.499 70.6443 155.766 72.3801 157.448 73.4603C155.999 75.7399 155.612 76.8046 155.499 78.4127C156.16 82.8918 157.554 84.931 161.639 87.8319C164.075 90.2596 168.481 90.7155 166.999 91.1335C141.855 98.2222 139.711 85.5811 137.275 77.8127C136.69 72.6835 145.266 65.4493 137.275 69.4449C135.228 70.4682 136.3 58.6032 130.453 58.6032L129.966 59.7685L132.012 66.5658C132.012 66.5658 129.966 63.4584 128.114 62.6816C125.483 60.7395 126.661 60.254 124.216 60.7395C121.771 61.225 121.682 63.4585 121 64.8179V66.2745C122.554 69.9382 123.725 71.4379 126.165 73.4603C126.038 76.1721 125.775 77.4416 126.799 79.578C127.823 81.7143 130.015 82.4911 130.015 82.4911C130.307 86.5372 132.071 95.445 136.983 101.038C141.894 106.632 159.625 105.732 167.584 104.34C168.97 114.407 171.001 119.878 176.16 124.829C176.16 124.829 169.338 126.918 165.927 129.49C162.516 132.062 162.808 135.996 162.808 135.996C163.978 142.502 169.52 144.792 168.753 144.93C161.736 146.192 159.235 152.439 160.274 153.864C160.274 153.864 161.417 156 167.876 156H175.477C175.477 156 175.672 154.058 179.765 152.116C183.859 150.174 184.443 148.037 184.443 148.037C179.765 143.085 168.753 136.579 191.557 133.763C199.728 132.754 212.12 137.356 215.824 146.872C215.557 147.858 214.459 147.843 215.142 149.397C215.824 150.951 220.404 152.213 220.404 152.213C220.404 152.213 221.963 156 225.179 156C228.395 156 227.031 153.864 227.031 153.864C227.031 153.864 231.138 155.596 234.438 155.126C238.531 154.543 239.7 152.99 239.7 152.99C239.7 152.99 241.649 150.659 235.607 147.94C229.565 145.221 226.72 146.077 227.713 145.804C230.539 142.697 228.59 138.715 227.031 136.676C209.489 119.294 200.621 109.584 191.557 94.0466C191.557 94.0466 197.015 93.2698 205.688 99.3875C214.362 105.505 217.481 112.108 217.481 112.108C215.921 114.827 212.666 116.847 213.68 118.323C214.693 119.799 219.235 116.769 220.989 115.313C222.743 113.856 225.426 122.304 227.031 123.567C228.636 124.829 230.539 123.567 230.539 123.567C230.539 123.567 235.607 120.654 233.073 114.245C230.539 107.836 225.376 108.181 224.205 106.088C211.438 83.268 195.033 80.4195 187.757 81.9085C189.608 79.578 191.557 79.4809 192.142 75.5966C192.402 73.8681 197.819 77.9272 198.574 68.8964C198.761 66.6629 195.781 65.5624 193.896 64.915C192.142 56.4669 186.51 52 178.791 52C168.753 52 169.728 54.5247 162.516 55.2045Z" fill="#0000FF" stroke="black"/>
</svg>
